# xmcd
#
# Track frame offsets:
#	150
#	27882
#	47255
#
# Disc length: 959 seconds
#
# Revision: 2
# Processed by: cddbd v1.4b42PL1 Copyright (c) Steve Scherf et al.
# Submitted via: EZCDDA 4.3.2
#
DISCID=1603bd03
DTITLE=Leonard Cohen - Promo Cohen Live
DYEAR=1900
DGENRE=
TTITLE0=Dance me to the End of Love
TTITLE1=Suzanne
TTITLE2=I'm Your Man
EXTD=
EXTT0=
EXTT1=
EXTT2=
PLAYORDER=
